<?xml version="1.0" encoding="UTF-8" standalone="no"?><!DOCTYPE svg PUBLIC "-//W3C//DTD SVG 1.1//EN" "http://www.w3.org/Graphics/SVG/1.1/DTD/svg11.dtd"><svg width="100%" height="100%" viewBox="0 0 500 97" version="1.1" xmlns="http://www.w3.org/2000/svg" xmlns:xlink="http://www.w3.org/1999/xlink" xml:space="preserve" xmlns:serif="http://www.serif.com/" style="fill-rule:evenodd;clip-rule:evenodd;stroke-linejoin:round;stroke-miterlimit:1.41421;"><rect id="Artboard1" x="0" y="0" width="500" height="96.151" style="fill:none;"/><g><g><path d="M287.491,93.531l-7.64,0l-18.38,-45.008l18.38,-44.997l7.64,0l-18.059,44.997l18.059,45.008Z" style="fill:#27bbb2;fill-rule:nonzero;"/><path d="M194.888,13.734l6.79,7.426l0,62.174l9.51,0l0,8.719l-9.51,0l-6.79,0l-9.51,0l0,-8.719l9.51,0l0,-69.6Z" style="fill:#090909;fill-rule:nonzero;"/><path d="M251.987,4.998l0,87.055l-6.791,0l-0.197,0l-13.389,-57.456l0,57.456l-6.791,0l0,-87.055l6.791,0l0,0.123l13.586,57.456l0,-57.579l6.791,0Z" style="fill:#090909;fill-rule:nonzero;"/><path d="M105.238,4.979l0,8.704l9.51,0l0,78.352l6.791,0l0,-70.958l-6.791,-7.394l6.791,0.016l0,-0.016l9.51,0l0,-8.704l-25.811,0Z" style="fill:#090909;fill-rule:nonzero;"/><path d="M164.957,4.977l0,34.824l-13.491,0l0,-34.824l-6.79,0l0,87.055l6.79,0l0,-43.528l13.491,0l0,43.528l6.791,0l0,-87.055l-6.791,0Z" style="fill:#090909;fill-rule:nonzero;"/><path d="M446.65,13.737l-6.79,7.427l0,62.168l-9.51,0l0,8.72l25.811,0l0,-8.72l-9.511,0l0,-69.595Z" style="fill:#090909;fill-rule:nonzero;"/><path d="M399.06,83.355l0,-78.351l-6.79,0l0,87.049l24.448,0l0,-8.698l-17.658,0Z" style="fill:#090909;fill-rule:nonzero;"/><path d="M490.039,24.155l0,-9.237c0,-0.818 -0.289,-1.224 -0.871,-1.224l-11.631,0c-0.642,0 -0.968,0.411 -0.968,1.24l0,67.185c0,0.828 0.326,1.245 0.968,1.245l11.631,0c0.582,0 0.871,-0.412 0.871,-1.229l0,-9.2l6.785,-16.723l0,26.03c0,2.484 -0.598,4.637 -1.795,6.459c-1.197,1.822 -2.73,2.939 -4.6,3.35l-14.148,0c-1.875,-0.411 -3.425,-1.528 -4.654,-3.355c-1.228,-1.822 -1.838,-3.98 -1.838,-6.465l0,-67.41c0,-2.484 0.61,-4.637 1.838,-6.464c1.229,-1.822 2.779,-2.944 4.654,-3.356l14.148,0c1.87,0.412 3.403,1.528 4.6,3.35c1.197,1.822 1.795,3.975 1.795,6.46l0,26.035l-6.785,-16.691Z" style="fill:#090909;fill-rule:nonzero;"/><path d="M340.558,5l0,8.704l-9.51,0l0,78.351l-6.79,0l0,-70.957l6.79,-7.394l-6.79,0.016l0,-0.016l-9.511,0l0,-8.704l25.811,0Z" style="fill:#090909;fill-rule:nonzero;"/><path d="M378.639,13.706l0,-8.704l-24.454,0l0,87.056l24.454,0l0,-8.709l-17.658,0l0,-34.819l14.164,0l0,-8.709l-14.164,0l0,-26.115l17.658,0Z" style="fill:#090909;fill-rule:nonzero;"/><path d="M40.436,83.735l-14.223,-35.402l14.223,-35.46l14.211,35.46l-14.211,35.402Zm3.82,-80.313l-0.016,0l-7.609,0l-0.016,0l-18.341,44.911l18.341,44.922l7.641,0l18.336,-44.922l-18.336,-44.911Z" style="fill:#27bbb1;fill-rule:nonzero;"/><path d="M59.346,3.424l-0.01,0l-7.614,0l-0.011,0l-3.729,9.098l3.879,9.457l3.665,-9.104l14.217,35.46l-14.217,35.401l-3.665,-9.179l-3.879,9.532l3.729,9.163l7.635,0l18.337,-44.917l-18.337,-44.911Z" style="fill:#090909;fill-rule:nonzero;"/><path d="M25.338,83.735l-14.223,-35.402l14.223,-35.46l14.212,35.46l-14.212,35.402Zm3.82,-80.313l-0.016,0l-7.608,0l-0.016,0l-18.342,44.911l18.342,44.922l7.64,0l18.336,-44.922l-18.336,-44.911Z" style="fill:#090909;fill-rule:nonzero;"/></g><path d="M211.189,4.998l0,8.703l-9.51,0l0,0.016l-6.791,0l0,-0.016l-9.51,0l0,-8.703" style="fill:#090909;fill-rule:nonzero;"/><path d="M430.349,5l0,8.704l9.51,0l0,0.016l6.79,0l0,-0.016l9.511,0l0,-8.704" style="fill:#090909;fill-rule:nonzero;"/></g></svg>