<?xml version="1.0" encoding="UTF-8" standalone="no"?><!DOCTYPE svg PUBLIC "-//W3C//DTD SVG 1.1//EN" "http://www.w3.org/Graphics/SVG/1.1/DTD/svg11.dtd"><svg width="100%" height="100%" viewBox="0 0 667 467" version="1.1" xmlns="http://www.w3.org/2000/svg" xmlns:xlink="http://www.w3.org/1999/xlink" xml:space="preserve" xmlns:serif="http://www.serif.com/" style="fill-rule:evenodd;clip-rule:evenodd;stroke-linejoin:round;stroke-miterlimit:1.41421;"><path d="M30.629,436.443l302.487,-400.998l302.488,400.998l-604.975,0Zm627.558,2.17l-305.295,-410.204l224.304,0c5.885,0 8.835,-2.485 8.835,-8.37c0,-2.581 -0.922,-4.03 -2.761,-5.497c-1.846,-1.474 -3.864,-1.628 -6.074,-1.628l-488.832,0c-2.209,0 -4.227,0.154 -6.073,1.628c-1.84,1.467 -2.761,2.916 -2.761,5.497c0,5.885 2.949,8.37 8.834,8.37l224.305,0l-305.295,410.204c-0.734,1.467 -2.21,5.61 -2.21,7.458c0,2.57 0.925,4.757 2.761,6.234c1.846,1.467 3.865,2.732 6.075,2.732l637.562,0c2.208,0 4.227,-1.265 6.073,-2.732c1.837,-1.477 2.761,-3.664 2.761,-6.234c0,-1.848 -1.475,-5.991 -2.209,-7.458" style="fill:#ff446d;fill-rule:nonzero;stroke:#ff446d;stroke-width:5.56px;"/></svg>