<?xml version="1.0" encoding="UTF-8" standalone="no"?><!DOCTYPE svg PUBLIC "-//W3C//DTD SVG 1.1//EN" "http://www.w3.org/Graphics/SVG/1.1/DTD/svg11.dtd"><svg width="100%" height="100%" viewBox="0 0 120 13" version="1.1" xmlns="http://www.w3.org/2000/svg" xmlns:xlink="http://www.w3.org/1999/xlink" xml:space="preserve" xmlns:serif="http://www.serif.com/" style="fill-rule:evenodd;clip-rule:evenodd;stroke-linejoin:round;stroke-miterlimit:1.41421;"><rect id="Artboard1" x="0" y="0" width="120" height="12.72" style="fill:none;"/><g><path d="M1.665,6.025c0.228,-0.008 0.412,-0.051 0.554,-0.131c0.183,-0.105 0.322,-0.251 0.417,-0.436c0.095,-0.185 0.152,-0.446 0.17,-0.784c0.008,-0.167 0.014,-0.55 0.02,-1.149c0.005,-0.599 0.046,-1.027 0.121,-1.285c0.075,-0.258 0.191,-0.463 0.348,-0.616c0.157,-0.152 0.358,-0.263 0.601,-0.332c0.146,-0.04 0.381,-0.06 0.703,-0.06l0.367,0l0,0.855l-0.226,0c-0.391,0 -0.65,0.07 -0.774,0.21c-0.125,0.14 -0.188,0.444 -0.188,0.912c0,0.846 -0.013,1.385 -0.039,1.617c-0.049,0.447 -0.158,0.789 -0.329,1.027c-0.17,0.238 -0.439,0.442 -0.806,0.613c0.412,0.17 0.711,0.427 0.896,0.77c0.186,0.343 0.278,0.905 0.278,1.686c0,0.697 0.008,1.109 0.023,1.236c0.022,0.196 0.069,0.347 0.139,0.452c0.053,0.073 0.136,0.13 0.249,0.172c0.114,0.041 0.408,0.065 0.777,0.065l0,0.854l-0.366,-0.002c-0.374,0 -0.647,-0.03 -0.819,-0.092c-0.25,-0.091 -0.451,-0.237 -0.602,-0.438c-0.151,-0.202 -0.25,-0.472 -0.294,-0.809c-0.034,-0.24 -0.053,-0.687 -0.056,-1.34c-0.004,-0.668 -0.042,-1.12 -0.116,-1.356c-0.073,-0.236 -0.197,-0.419 -0.373,-0.548c-0.176,-0.128 -0.401,-0.196 -0.675,-0.204l0,-0.887Z" style="fill:#fff;fill-rule:nonzero;"/><path d="M118.322,5.984l0.013,0.888c-0.229,0.006 -0.414,0.05 -0.555,0.132c-0.182,0.108 -0.32,0.255 -0.413,0.441c-0.093,0.187 -0.146,0.449 -0.16,0.787c-0.005,0.167 -0.006,0.551 -0.004,1.152c0.003,0.601 -0.031,1.03 -0.102,1.287c-0.072,0.257 -0.185,0.463 -0.34,0.62c-0.155,0.156 -0.354,0.268 -0.597,0.337c-0.145,0.042 -0.379,0.065 -0.702,0.069l-0.514,0.033l0.017,-0.858l0.344,-0.028c0.392,-0.005 0.649,-0.078 0.772,-0.217c0.123,-0.139 0.181,-0.444 0.174,-0.912c-0.012,-0.867 -0.004,-1.42 0.022,-1.656c0.046,-0.44 0.161,-0.785 0.343,-1.034c0.182,-0.249 0.437,-0.445 0.764,-0.588c-0.441,-0.197 -0.75,-0.461 -0.927,-0.791c-0.177,-0.33 -0.271,-0.878 -0.281,-1.643c-0.011,-0.803 -0.035,-1.273 -0.07,-1.41c-0.044,-0.185 -0.125,-0.316 -0.244,-0.395c-0.118,-0.078 -0.343,-0.115 -0.675,-0.111l-0.227,0l-0.012,-0.855l0.367,-0.001c0.374,-0.005 0.647,0.024 0.82,0.087c0.252,0.084 0.454,0.226 0.609,0.428c0.154,0.201 0.255,0.468 0.305,0.802c0.037,0.239 0.062,0.685 0.075,1.339c0.013,0.668 0.058,1.12 0.134,1.357c0.077,0.236 0.205,0.418 0.383,0.545c0.179,0.126 0.406,0.191 0.681,0.195" style="fill:#fff;fill-rule:nonzero;"/><g><path d="M5.643,3.665l0,-0.219l3.217,0l0,0.219l-0.538,0l1.504,3.393l0.703,-1.746l-0.736,-1.647l-0.417,0l0,-0.219l3.008,0l0,0.219l-0.516,0l1.472,3.349l1.164,-3.349l-0.879,0l0,-0.219l1.889,0l0,0.219l-0.747,0l-2.053,5.93l-0.264,0l0.044,-0.121l-0.055,0.121l-1.767,-3.975l-1.593,3.975l-0.263,0l-2.646,-5.93l-0.527,0Z" style="fill:#fff;fill-rule:nonzero;"/><path d="M18.698,9.375l0.549,0l0,0.22l-2.745,0l0,-0.22l0.549,0l0,-4.612l-0.439,0l0,-0.219l2.086,0l0,4.831Zm0.099,-6.286c0,0.267 -0.094,0.494 -0.28,0.681c-0.187,0.186 -0.414,0.28 -0.681,0.28c-0.267,0 -0.496,-0.094 -0.686,-0.28c-0.191,-0.187 -0.286,-0.414 -0.286,-0.681c0,-0.267 0.095,-0.496 0.286,-0.686c0.19,-0.191 0.419,-0.286 0.686,-0.286c0.267,0 0.494,0.095 0.681,0.286c0.186,0.19 0.28,0.419 0.28,0.686Z" style="fill:#fff;fill-rule:nonzero;"/><path d="M22.651,9.375l0.549,0l0,0.22l-2.745,0l0,-0.22l0.549,0l0,-6.917l-0.549,0l0,-0.22l2.196,0l0,7.137Z" style="fill:#fff;fill-rule:nonzero;"/><path d="M26.603,9.375l0.549,0l0,0.22l-2.745,0l0,-0.22l0.549,0l0,-6.917l-0.549,0l0,-0.22l2.196,0l0,7.137Z" style="fill:#fff;fill-rule:nonzero;"/><path d="M30.556,9.375l0.549,0l0,0.22l-2.745,0l0,-0.22l0.549,0l0,-4.612l-0.439,0l0,-0.219l2.086,0l0,4.831Zm0.099,-6.286c0,0.267 -0.093,0.494 -0.28,0.681c-0.187,0.186 -0.414,0.28 -0.681,0.28c-0.267,0 -0.496,-0.094 -0.686,-0.28c-0.19,-0.187 -0.286,-0.414 -0.286,-0.681c0,-0.267 0.096,-0.496 0.286,-0.686c0.19,-0.191 0.419,-0.286 0.686,-0.286c0.267,0 0.494,0.095 0.681,0.286c0.187,0.19 0.28,0.419 0.28,0.686Z" style="fill:#fff;fill-rule:nonzero;"/><path d="M37.638,9.375c-0.073,0.073 -0.212,0.137 -0.417,0.192c-0.205,0.055 -0.443,0.082 -0.714,0.082c-0.6,0 -0.977,-0.179 -1.131,-0.538c-0.366,0.381 -0.926,0.571 -1.68,0.571c-0.402,0 -0.733,-0.093 -0.993,-0.28c-0.26,-0.186 -0.39,-0.463 -0.39,-0.829c0,-0.49 0.19,-0.869 0.571,-1.136c0.38,-0.267 1.047,-0.456 1.998,-0.565l0.439,-0.055l0,-0.538c0,-0.637 -0.047,-1.065 -0.142,-1.285c-0.095,-0.22 -0.284,-0.329 -0.566,-0.329c-0.282,0 -0.463,0.038 -0.543,0.115c-0.081,0.077 -0.11,0.165 -0.088,0.263c0.022,0.099 0.058,0.229 0.11,0.39c0.051,0.161 0.077,0.289 0.077,0.384c0,0.227 -0.079,0.419 -0.237,0.577c-0.157,0.157 -0.347,0.236 -0.571,0.236c-0.223,0 -0.415,-0.079 -0.576,-0.236c-0.161,-0.158 -0.242,-0.35 -0.242,-0.577c0,-0.373 0.193,-0.693 0.577,-0.96c0.384,-0.267 0.959,-0.401 1.724,-0.401c0.765,0 1.31,0.15 1.636,0.45c0.326,0.3 0.488,0.831 0.488,1.592l0,1.977c0,0.388 0.048,0.631 0.143,0.73c0.095,0.099 0.271,0.119 0.527,0.06l0,0.11Zm-3.799,-1.021c0.037,0.278 0.139,0.492 0.308,0.642c0.168,0.15 0.364,0.225 0.587,0.225c0.223,0 0.419,-0.11 0.587,-0.329l0,-1.867l-0.395,0.055c-0.337,0.044 -0.609,0.172 -0.818,0.384c-0.208,0.213 -0.298,0.509 -0.269,0.89Z" style="fill:#fff;fill-rule:nonzero;"/><path d="M47.959,9.375l0.549,0l0,0.22l-2.745,0l0,-0.22l0.549,0l0,-3.074c0,-0.52 -0.077,-0.89 -0.23,-1.109c-0.154,-0.22 -0.385,-0.33 -0.692,-0.33c-0.176,0 -0.359,0.051 -0.549,0.154c-0.19,0.102 -0.348,0.245 -0.472,0.428c0.088,0.264 0.132,0.63 0.132,1.098l0,2.833l0.549,0l0,0.22l-2.855,0l0,-0.22l0.659,0l0,-3.074c0,-0.52 -0.077,-0.89 -0.231,-1.109c-0.154,-0.22 -0.384,-0.33 -0.692,-0.33c-0.417,0 -0.75,0.22 -0.999,0.659l0,3.854l0.549,0l0,0.22l-2.745,0l0,-0.22l0.549,0l0,-4.612l-0.549,0l0,-0.219l2.196,0l0,0.571c0.139,-0.191 0.357,-0.353 0.653,-0.489c0.297,-0.135 0.617,-0.203 0.961,-0.203c0.871,0 1.439,0.245 1.702,0.736c0.19,-0.235 0.443,-0.416 0.758,-0.544c0.314,-0.128 0.647,-0.192 0.999,-0.192c1.303,0 1.954,0.706 1.954,2.119l0,2.833Z" style="fill:#fff;fill-rule:nonzero;"/><path d="M58.961,3.665l-0.549,0l0,5.71l0.549,0l0,0.22l-2.745,0l0,-0.22l0.549,0l0,-2.943l-2.163,0l0,2.943l0.549,0l0,0.22l-2.745,0l0,-0.22l0.549,0l0,-5.71l-0.549,0l0,-0.219l2.745,0l0,0.219l-0.549,0l0,2.548l2.163,0l0,-2.548l-0.549,0l0,-0.219l2.745,0l0,0.219Z" style="fill:#fff;fill-rule:nonzero;"/><path d="M65.022,7.399l-3.316,0c0.073,1.288 0.575,1.932 1.504,1.932c0.249,0 0.533,-0.059 0.851,-0.176c0.319,-0.117 0.551,-0.281 0.697,-0.494l0.154,0.11c-0.161,0.271 -0.435,0.494 -0.823,0.67c-0.388,0.175 -0.774,0.263 -1.159,0.263c-0.384,0 -0.73,-0.038 -1.037,-0.115c-0.308,-0.077 -0.608,-0.207 -0.901,-0.39c-0.292,-0.183 -0.521,-0.457 -0.686,-0.823c-0.165,-0.366 -0.247,-0.809 -0.247,-1.329c0,-0.886 0.245,-1.542 0.736,-1.971c0.49,-0.428 1.085,-0.642 1.784,-0.642c0.699,0 1.281,0.234 1.746,0.703c0.465,0.468 0.697,1.222 0.697,2.262Zm-3.327,-0.22l1.79,0c0,-0.673 -0.072,-1.263 -0.214,-1.768c-0.143,-0.505 -0.372,-0.757 -0.687,-0.757c-0.314,0 -0.541,0.243 -0.68,0.73c-0.139,0.487 -0.209,1.045 -0.209,1.674l0,0.121Z" style="fill:#fff;fill-rule:nonzero;"/><path d="M69.008,9.595l-2.745,0l0,-0.22l0.549,0l0,-4.612l-0.549,0l0,-0.219l2.196,0l0,1.306c0.066,-0.358 0.185,-0.651 0.357,-0.878c0.172,-0.227 0.362,-0.377 0.57,-0.45c0.209,-0.073 0.41,-0.11 0.604,-0.11c0.194,0 0.381,0.035 0.56,0.104c0.18,0.07 0.313,0.209 0.401,0.418c0.088,0.208 0.092,0.417 0.011,0.625c-0.08,0.209 -0.221,0.357 -0.423,0.445c-0.201,0.088 -0.386,0.099 -0.554,0.033c-0.168,-0.066 -0.289,-0.156 -0.362,-0.269c-0.074,-0.113 -0.125,-0.221 -0.154,-0.324c-0.073,-0.271 -0.172,-0.406 -0.297,-0.406c-0.139,0 -0.292,0.24 -0.461,0.719c-0.168,0.479 -0.252,0.986 -0.252,1.521l0,2.097l0.549,0l0,0.22Z" style="fill:#fff;fill-rule:nonzero;"/><path d="M77.77,9.375l0.549,0l0,0.22l-2.745,0l0,-0.22l0.549,0l0,-3.074c0,-0.52 -0.077,-0.89 -0.231,-1.109c-0.154,-0.22 -0.384,-0.33 -0.692,-0.33c-0.417,0 -0.75,0.22 -0.999,0.659l0,3.854l0.549,0l0,0.22l-2.745,0l0,-0.22l0.549,0l0,-4.612l-0.549,0l0,-0.219l2.196,0l0,0.571c0.139,-0.191 0.357,-0.353 0.653,-0.489c0.297,-0.135 0.617,-0.203 0.961,-0.203c1.303,0 1.955,0.706 1.955,2.119l0,2.833Z" style="fill:#fff;fill-rule:nonzero;"/><path d="M84.852,9.375c-0.074,0.073 -0.213,0.137 -0.418,0.192c-0.205,0.055 -0.442,0.082 -0.713,0.082c-0.601,0 -0.977,-0.179 -1.131,-0.538c-0.366,0.381 -0.926,0.571 -1.68,0.571c-0.403,0 -0.734,-0.093 -0.994,-0.28c-0.26,-0.186 -0.39,-0.463 -0.39,-0.829c0,-0.49 0.191,-0.869 0.571,-1.136c0.381,-0.267 1.047,-0.456 1.999,-0.565l0.439,-0.055l0,-0.538c0,-0.637 -0.048,-1.065 -0.143,-1.285c-0.095,-0.22 -0.283,-0.329 -0.565,-0.329c-0.282,0 -0.463,0.038 -0.544,0.115c-0.08,0.077 -0.11,0.165 -0.088,0.263c0.022,0.099 0.059,0.229 0.11,0.39c0.051,0.161 0.077,0.289 0.077,0.384c0,0.227 -0.079,0.419 -0.236,0.577c-0.157,0.157 -0.348,0.236 -0.571,0.236c-0.223,0 -0.415,-0.079 -0.576,-0.236c-0.161,-0.158 -0.242,-0.35 -0.242,-0.577c0,-0.373 0.192,-0.693 0.576,-0.96c0.385,-0.267 0.959,-0.401 1.724,-0.401c0.765,0 1.311,0.15 1.636,0.45c0.326,0.3 0.489,0.831 0.489,1.592l0,1.977c0,0.388 0.047,0.631 0.143,0.73c0.095,0.099 0.27,0.119 0.527,0.06l0,0.11Zm-3.799,-1.021c0.036,0.278 0.139,0.492 0.307,0.642c0.168,0.15 0.364,0.225 0.587,0.225c0.224,0 0.42,-0.11 0.588,-0.329l0,-1.867l-0.395,0.055c-0.337,0.044 -0.61,0.172 -0.818,0.384c-0.209,0.213 -0.299,0.509 -0.269,0.89Z" style="fill:#fff;fill-rule:nonzero;"/><path d="M91.714,9.375l0.549,0l0,0.22l-2.745,0l0,-0.22l0.549,0l0,-3.074c0,-0.52 -0.077,-0.89 -0.23,-1.109c-0.154,-0.22 -0.385,-0.33 -0.692,-0.33c-0.417,0 -0.75,0.22 -0.999,0.659l0,3.854l0.549,0l0,0.22l-2.745,0l0,-0.22l0.549,0l0,-4.612l-0.549,0l0,-0.219l2.196,0l0,0.571c0.139,-0.191 0.356,-0.353 0.653,-0.489c0.296,-0.135 0.617,-0.203 0.961,-0.203c1.303,0 1.954,0.706 1.954,2.119l0,2.833Z" style="fill:#fff;fill-rule:nonzero;"/><path d="M95.546,9.726c-0.593,0 -1.105,-0.234 -1.537,-0.702c-0.432,-0.469 -0.648,-1.131 -0.648,-1.988c0,-0.856 0.212,-1.526 0.637,-2.009c0.424,-0.483 0.941,-0.725 1.548,-0.725c0.3,0 0.582,0.062 0.846,0.187c0.263,0.124 0.453,0.311 0.57,0.56l0,-2.591l-0.549,0l0,-0.22l2.196,0l0,7.137l0.549,0l0,0.22l-2.196,0l0,-0.506c-0.197,0.425 -0.669,0.637 -1.416,0.637Zm1.416,-2.536l0,-1.812c-0.197,-0.395 -0.455,-0.593 -0.774,-0.593c-0.318,0 -0.591,0.183 -0.818,0.549c-0.227,0.366 -0.34,0.946 -0.34,1.741c0,0.794 0.117,1.374 0.351,1.74c0.235,0.366 0.516,0.523 0.846,0.472c0.183,-0.029 0.322,-0.088 0.417,-0.176c0.212,-0.205 0.318,-0.845 0.318,-1.921Z" style="fill:#fff;fill-rule:nonzero;"/><path d="M105.219,7.399l-3.316,0c0.074,1.288 0.575,1.932 1.505,1.932c0.249,0 0.532,-0.059 0.851,-0.176c0.318,-0.117 0.55,-0.281 0.697,-0.494l0.154,0.11c-0.161,0.271 -0.436,0.494 -0.824,0.67c-0.388,0.175 -0.774,0.263 -1.158,0.263c-0.385,0 -0.73,-0.038 -1.038,-0.115c-0.307,-0.077 -0.607,-0.207 -0.9,-0.39c-0.293,-0.183 -0.522,-0.457 -0.687,-0.823c-0.164,-0.366 -0.247,-0.809 -0.247,-1.329c0,-0.886 0.246,-1.542 0.736,-1.971c0.491,-0.428 1.085,-0.642 1.784,-0.642c0.699,0 1.281,0.234 1.746,0.703c0.465,0.468 0.697,1.222 0.697,2.262Zm-3.327,-0.22l1.79,0c0,-0.673 -0.071,-1.263 -0.214,-1.768c-0.143,-0.505 -0.371,-0.757 -0.686,-0.757c-0.315,0 -0.542,0.243 -0.681,0.73c-0.139,0.487 -0.209,1.045 -0.209,1.674l0,0.121Z" style="fill:#fff;fill-rule:nonzero;"/><path d="M106.131,9.595l0,-0.165l3.107,-4.667l-0.648,0c-1.295,0 -1.943,0.604 -1.943,1.812l-0.176,0l0,-2.031l4.623,0l0,0.132l-3.075,4.699l0.67,0c0.395,0 0.714,-0.022 0.955,-0.066c0.242,-0.044 0.461,-0.132 0.659,-0.263c0.381,-0.257 0.571,-0.802 0.571,-1.636l0.154,0l0,2.185l-4.897,0Z" style="fill:#fff;fill-rule:nonzero;"/><path d="M114.344,5.071c0.022,0.088 0.033,0.201 0.033,0.34c0,0.139 -0.044,0.275 -0.132,0.406c-0.088,0.132 -0.214,0.198 -0.379,0.198c-0.165,0 -0.357,-0.055 -0.576,-0.165c-0.22,-0.109 -0.377,-0.164 -0.473,-0.164c-0.175,0 -0.263,0.095 -0.263,0.285l-0.143,0c0.022,-0.219 0.09,-0.408 0.203,-0.565c0.114,-0.158 0.262,-0.324 0.445,-0.5c0.183,-0.176 0.322,-0.329 0.417,-0.461c0.095,-0.132 0.143,-0.267 0.143,-0.406c0,-0.139 -0.04,-0.255 -0.121,-0.346c-0.08,-0.092 -0.183,-0.137 -0.307,-0.137c-0.125,0 -0.229,0.02 -0.313,0.06c-0.084,0.04 -0.126,0.086 -0.126,0.137c0,0.029 0.032,0.051 0.098,0.066c0.183,0.044 0.275,0.146 0.275,0.308c0,0.08 -0.028,0.148 -0.082,0.203c-0.055,0.055 -0.132,0.082 -0.231,0.082c-0.099,0 -0.181,-0.037 -0.247,-0.11c-0.066,-0.073 -0.099,-0.185 -0.099,-0.335c0,-0.15 0.077,-0.283 0.231,-0.4c0.153,-0.118 0.367,-0.176 0.642,-0.176c0.274,0 0.509,0.06 0.703,0.181c0.194,0.121 0.291,0.287 0.291,0.5c0,0.212 -0.063,0.386 -0.187,0.521c-0.124,0.136 -0.264,0.229 -0.417,0.28c-0.447,0.132 -0.725,0.278 -0.835,0.439c0.081,-0.058 0.17,-0.087 0.269,-0.087c0.099,0 0.22,0.018 0.363,0.054c0.142,0.037 0.25,0.055 0.324,0.055c0.278,0 0.428,-0.088 0.45,-0.263l0.044,0Z" style="fill:#fff;fill-rule:nonzero;"/></g></g></svg>